<?xml version="1.0" encoding="iso-8859-1"?>
<!-- Generator: Adobe Illustrator 18.0.0, SVG Export Plug-In . SVG Version: 6.00 Build 0)  -->
<!DOCTYPE svg PUBLIC "-//W3C//DTD SVG 1.1//EN" "http://www.w3.org/Graphics/SVG/1.1/DTD/svg11.dtd">
<svg version="1.1" id="Capa_1" xmlns="http://www.w3.org/2000/svg" xmlns:xlink="http://www.w3.org/1999/xlink" x="0px" y="0px"
	 viewBox="0 0 58 58" style="enable-background:new 0 0 58 58;" xml:space="preserve">
<g>
	<circle style="fill:#E092AC;" cx="43" cy="39" r="1"/>
	<circle style="fill:#E092AC;" cx="45" cy="56" r="1"/>
	<circle style="fill:#E092AC;" cx="20" cy="48" r="1"/>
	<circle style="fill:#BC939F;" cx="36" cy="42" r="1"/>
	<circle style="fill:#BC939F;" cx="51" cy="47" r="1"/>
	<circle style="fill:#BC939F;" cx="14" cy="56" r="1"/>
	<path style="fill:#6F5198;" d="M17.485,40.184L2.636,25.335c-3.515-3.515-3.515-9.213,0-12.728l0,0
		c3.515-3.515,9.213-3.515,12.728,0l14.849,14.849L17.485,40.184z"/>
	<path style="fill:#A6B45E;" d="M40.515,31.213l14.849-14.849c3.515-3.515,3.515-9.213,0-12.728l0,0
		c-3.515-3.515-9.213-3.515-12.728,0L27.787,18.485L40.515,31.213z"/>
	<circle style="fill:#BC939F;" cx="35" cy="35" r="3"/>
	<circle style="fill:#E092AC;" cx="28" cy="43" r="3"/>
	<circle style="fill:#E092AC;" cx="38" cy="49" r="3"/>
	<circle style="fill:#BC939F;" cx="28" cy="54" r="3"/>
	<path style="fill:#DCF23B;" d="M41,24c-0.256,0-0.512-0.098-0.707-0.293c-0.391-0.391-0.391-1.023,0-1.414l11-11
		c0.391-0.391,1.023-0.391,1.414,0s0.391,1.023,0,1.414l-11,11C41.512,23.902,41.256,24,41,24z"/>
	<path style="fill:#9B6AEA;" d="M23.5,29.5c-0.256,0-0.512-0.098-0.707-0.293l-12.5-12.5c-0.391-0.391-0.391-1.023,0-1.414
		s1.023-0.391,1.414,0l12.5,12.5c0.391,0.391,0.391,1.023,0,1.414C24.012,29.402,23.756,29.5,23.5,29.5z"/>
</g>
<g>
</g>
<g>
</g>
<g>
</g>
<g>
</g>
<g>
</g>
<g>
</g>
<g>
</g>
<g>
</g>
<g>
</g>
<g>
</g>
<g>
</g>
<g>
</g>
<g>
</g>
<g>
</g>
<g>
</g>
</svg>
