<?xml version="1.0" encoding="iso-8859-1"?>
<!-- Generator: Adobe Illustrator 19.0.0, SVG Export Plug-In . SVG Version: 6.00 Build 0)  -->
<svg version="1.1" id="Layer_1" xmlns="http://www.w3.org/2000/svg" xmlns:xlink="http://www.w3.org/1999/xlink" x="0px" y="0px"
	 viewBox="0 0 512 512" style="enable-background:new 0 0 512 512;" xml:space="preserve">
<polygon style="fill:#3C8CD8;" points="235.102,437.368 256,512 402.242,512 402.242,468.715 "/>
<polygon style="fill:#76BFEF;" points="256,437.368 256,437.368 109.758,468.715 109.758,512 256,512 "/>
<polygon style="fill:#E0E0E0;" points="256,0 235.102,107.621 438.746,76.274 442.485,0 "/>
<polygon style="fill:#F0F0F0;" points="256,0 69.515,0 73.255,76.274 256,107.621 "/>
<polygon style="fill:#76BFEF;" points="256,76.274 224.653,289.712 256,468.715 419.509,468.715 438.746,76.274 "/>
<polygon style="fill:#B0D8FB;" points="256,76.274 73.255,76.274 92.491,468.715 256,468.715 "/>
<g>
	<rect x="285.821" y="121.689" style="fill:#3C8CD8;" width="34.492" height="31.347"/>
	<rect x="144.614" y="168.751" style="fill:#3C8CD8;" width="34.492" height="31.347"/>
	<rect x="238.749" y="168.751" style="fill:#3C8CD8;" width="34.492" height="31.347"/>
	<rect x="332.894" y="168.751" style="fill:#3C8CD8;" width="34.492" height="31.347"/>
	<rect x="144.614" y="261.423" style="fill:#3C8CD8;" width="34.492" height="31.347"/>
	<rect x="191.687" y="121.689" style="fill:#3C8CD8;" width="34.492" height="31.347"/>
	<rect x="285.821" y="215.824" style="fill:#3C8CD8;" width="34.492" height="31.347"/>
	<rect x="191.687" y="215.824" style="fill:#3C8CD8;" width="34.492" height="31.347"/>
</g>
<path style="fill:#003DA8;" d="M344.199,307.044l-50.515,33.181l-33.181,50.513c-0.67-0.67-1.323-1.354-1.959-2.055
	c10.826,11.911,26.443,19.389,43.806,19.389c32.684,0,59.181-26.497,59.181-59.181C361.533,332.549,354.908,317.755,344.199,307.044
	z"/>
<path style="fill:#3C8CD8;" d="M302.352,289.712c-32.684,0-59.181,26.497-59.181,59.181c0,16.342,6.624,31.138,17.334,41.847
	l83.694-83.694C333.49,296.335,318.694,289.712,302.352,289.712z"/>
<g>
</g>
<g>
</g>
<g>
</g>
<g>
</g>
<g>
</g>
<g>
</g>
<g>
</g>
<g>
</g>
<g>
</g>
<g>
</g>
<g>
</g>
<g>
</g>
<g>
</g>
<g>
</g>
<g>
</g>
</svg>
