<?xml version="1.0" encoding="iso-8859-1"?>
<!-- Generator: Adobe Illustrator 19.0.0, SVG Export Plug-In . SVG Version: 6.00 Build 0)  -->
<svg version="1.1" id="Layer_1" xmlns="http://www.w3.org/2000/svg" xmlns:xlink="http://www.w3.org/1999/xlink" x="0px" y="0px"
	 viewBox="0 0 280.069 280.069" style="enable-background:new 0 0 280.069 280.069;" xml:space="preserve">
<g>
	<path style="fill:#E2574C;" d="M258.587,21.488c28.642,28.642,28.642,75.082,0,103.733l-133.372,133.38
		c-28.642,28.624-75.082,28.624-103.733,0c-28.642-28.659-28.642-75.1,0-103.741L154.845,21.488
		C183.496-7.163,229.936-7.163,258.587,21.488z"/>
	<path style="fill:#EBEBEB;" d="M154.845,21.488l-58.07,58.07L200.507,183.3l58.071-58.079
		c13.459-13.459,20.512-30.847,21.326-48.462V69.95c-0.814-17.624-7.858-35.003-21.326-48.462
		C245.075,7.985,227.617,0.932,209.932,0.153h-6.449C185.806,0.932,168.348,7.985,154.845,21.488z"/>
	<path style="fill:#CB4E44;" d="M96.785,79.601L200.5,183.316l-17.496,17.496L79.288,97.097L96.785,79.601z"/>
</g>
<g>
</g>
<g>
</g>
<g>
</g>
<g>
</g>
<g>
</g>
<g>
</g>
<g>
</g>
<g>
</g>
<g>
</g>
<g>
</g>
<g>
</g>
<g>
</g>
<g>
</g>
<g>
</g>
<g>
</g>
</svg>
