<?xml version="1.0" encoding="iso-8859-1"?>
<!-- Generator: Adobe Illustrator 18.0.0, SVG Export Plug-In . SVG Version: 6.00 Build 0)  -->
<!DOCTYPE svg PUBLIC "-//W3C//DTD SVG 1.1//EN" "http://www.w3.org/Graphics/SVG/1.1/DTD/svg11.dtd">
<svg version="1.1" id="Capa_1" xmlns="http://www.w3.org/2000/svg" xmlns:xlink="http://www.w3.org/1999/xlink" x="0px" y="0px"
	 viewBox="0 0 58 58" style="enable-background:new 0 0 58 58;" xml:space="preserve">
<g>
	<circle style="fill:#EFCE4A;" cx="14" cy="33" r="1"/>
	<circle style="fill:#ED8A19;" cx="53" cy="53" r="1"/>
	<circle style="fill:#E66E4F;" cx="13" cy="13" r="13"/>
	<circle style="fill:#556080;" cx="30" cy="45" r="13"/>
	<circle style="fill:#57ABC1;" cx="45" cy="17" r="13"/>
	<path style="fill:#BB523F;" d="M6.636,20.364c-0.256,0-0.512-0.098-0.707-0.293c-0.391-0.391-0.391-1.023,0-1.414L18.657,5.929
		c0.391-0.391,1.023-0.391,1.414,0s0.391,1.023,0,1.414L7.343,20.071C7.148,20.266,6.892,20.364,6.636,20.364z"/>
	<path style="fill:#2998C0;" d="M51.364,24.364c-0.256,0-0.512-0.098-0.707-0.293L37.929,11.343c-0.391-0.391-0.391-1.023,0-1.414
		s1.023-0.391,1.414,0l12.728,12.728c0.391,0.391,0.391,1.023,0,1.414C51.875,24.266,51.62,24.364,51.364,24.364z"/>
	<path style="fill:#3E465B;" d="M30,55c-0.552,0-1-0.448-1-1V36c0-0.552,0.448-1,1-1s1,0.448,1,1v18C31,54.552,30.552,55,30,55z"/>
	<path style="fill:#88C057;" d="M9,48H6v-3c0-0.552-0.448-1-1-1s-1,0.448-1,1v3H1c-0.552,0-1,0.448-1,1s0.448,1,1,1h3v3
		c0,0.552,0.448,1,1,1s1-0.448,1-1v-3h3c0.552,0,1-0.448,1-1S9.552,48,9,48z"/>
	<path style="fill:#CB465F;" d="M54.414,37.172l2.122-2.121c0.391-0.391,0.391-1.023,0-1.414s-1.023-0.391-1.414,0L53,35.758
		l-2.122-2.121c-0.391-0.391-1.023-0.391-1.414,0s-0.391,1.023,0,1.414l2.122,2.121l-2.122,2.121c-0.391,0.391-0.391,1.023,0,1.414
		C49.66,40.902,49.916,41,50.171,41s0.512-0.098,0.707-0.293L53,38.586l2.122,2.121C55.317,40.902,55.573,41,55.829,41
		s0.512-0.098,0.707-0.293c0.391-0.391,0.391-1.023,0-1.414L54.414,37.172z"/>
</g>
<g>
</g>
<g>
</g>
<g>
</g>
<g>
</g>
<g>
</g>
<g>
</g>
<g>
</g>
<g>
</g>
<g>
</g>
<g>
</g>
<g>
</g>
<g>
</g>
<g>
</g>
<g>
</g>
<g>
</g>
</svg>
