<?xml version="1.0" encoding="iso-8859-1"?>
<!-- Generator: Adobe Illustrator 19.0.0, SVG Export Plug-In . SVG Version: 6.00 Build 0)  -->
<svg version="1.1" id="Layer_1" xmlns="http://www.w3.org/2000/svg" xmlns:xlink="http://www.w3.org/1999/xlink" x="0px" y="0px"
	 viewBox="0 0 512 512" style="enable-background:new 0 0 512 512;" xml:space="preserve">
<circle style="fill:#FFD300;" cx="256" cy="256" r="256"/>
<path style="fill:#F4A200;" d="M277.79,511.067c111.811-9.426,203.166-90.698,227.709-197.498L308.291,116.364L261.47,389.325
	l-75.645,29.777L277.79,511.067z"/>
<path style="fill:#FFFFFF;" d="M301.689,430.114H210.31c-18.085,0-32.747-14.662-32.747-32.747V175.259
	c0-18.085,14.662-32.747,32.747-32.747h91.379c18.085,0,32.747,14.662,32.747,32.747v222.108
	C334.438,415.453,319.776,430.114,301.689,430.114z"/>
<path style="fill:#E6F3FF;" d="M301.689,142.51h-45.403v287.604h45.403c18.085,0,32.747-14.662,32.747-32.749V175.257
	C334.438,157.172,319.776,142.51,301.689,142.51z"/>
<rect x="203.714" y="116.364" style="fill:#324A5E;" width="104.584" height="26.146"/>
<rect x="256.293" y="116.364" style="fill:#2B3B4E;" width="52.01" height="26.146"/>
<rect x="203.714" y="297.408" style="fill:#4CDBC4;" width="104.584" height="26.146"/>
<rect x="256.293" y="297.408" style="fill:#26BEBE;" width="52.01" height="26.146"/>
<circle style="fill:#F4E3C3;" cx="218.712" cy="241.623" r="9.459"/>
<circle style="fill:#FED8B2;" cx="293.288" cy="241.623" r="9.459"/>
<ellipse style="fill:#F4E3C3;" cx="256" cy="241.623" rx="39.219" ry="26.146"/>
<path style="fill:#FED8B2;" d="M295.219,241.616c0-14.376-17.405-26.038-38.931-26.141v52.283
	C277.814,267.652,295.219,255.991,295.219,241.616z"/>
<g>
	<circle style="fill:#386895;" cx="235.003" cy="240.83" r="3.169"/>
	<circle style="fill:#386895;" cx="276.997" cy="240.83" r="3.169"/>
</g>
<path style="fill:#FF314F;" d="M256.372,251.575c-4.262,0-8.511-1.964-12.645-5.847c-0.693-0.652-0.729-1.743-0.076-2.436
	c0.65-0.696,1.743-0.727,2.436-0.076c3.758,3.529,7.489,5.17,11.13,4.877c5.185-0.421,8.476-4.63,8.509-4.672
	c0.581-0.755,1.664-0.898,2.417-0.317c0.753,0.581,0.898,1.664,0.317,2.417c-0.172,0.222-4.274,5.465-10.964,6.006
	C257.121,251.559,256.746,251.575,256.372,251.575z"/>
<g>
</g>
<g>
</g>
<g>
</g>
<g>
</g>
<g>
</g>
<g>
</g>
<g>
</g>
<g>
</g>
<g>
</g>
<g>
</g>
<g>
</g>
<g>
</g>
<g>
</g>
<g>
</g>
<g>
</g>
</svg>
