<?xml version="1.0" encoding="iso-8859-1"?>
<!-- Generator: Adobe Illustrator 19.0.0, SVG Export Plug-In . SVG Version: 6.00 Build 0)  -->
<svg version="1.1" id="Layer_1" xmlns="http://www.w3.org/2000/svg" xmlns:xlink="http://www.w3.org/1999/xlink" x="0px" y="0px"
	 viewBox="0 0 512.005 512.005" style="enable-background:new 0 0 512.005 512.005;" xml:space="preserve">
<rect x="406.048" y="309.795" transform="matrix(0.7071 -0.7071 0.7071 0.7071 -174.6895 421.745)" style="fill:#707070;" width="31.397" height="223.892"/>
<polygon style="fill:#B4B4B4;" points="385.609,339.08 345.255,298.727 295.846,319.223 362.341,362.346 "/>
<g>
	<polygon style="fill:#E0E0E0;" points="307.188,307.193 298.722,345.26 339.075,385.614 362.341,362.346 	"/>
	<polygon style="fill:#E0E0E0;" points="321.988,321.993 367.108,276.873 158.366,68.131 113.246,113.251 199.857,235.731 	"/>
</g>
<rect x="163.151" y="92.575" transform="matrix(-0.7071 0.7071 -0.7071 -0.7071 502.8116 272.084)" style="fill:#F0F0F0;" width="63.808" height="295.206"/>
<polygon style="fill:#B4B4B4;" points="113.246,91.05 81.252,59.056 118.102,22.206 95.9,0.005 0,95.905 22.201,118.107 
	59.051,81.257 91.045,113.251 21.3,182.996 43.501,205.197 205.193,43.506 182.991,21.304 "/>
<g>
	
		<rect x="106.786" y="164.139" transform="matrix(-0.7071 0.7071 -0.7071 -0.7071 380.2983 202.1509)" style="fill:#707070;" width="82.993" height="31.397"/>
	
		<rect x="142.486" y="199.851" transform="matrix(0.7071 -0.7071 0.7071 0.7071 -98.5288 193.2284)" style="fill:#707070;" width="82.993" height="31.397"/>
	
		<rect x="178.208" y="235.549" transform="matrix(0.7071 -0.7071 0.7071 0.7071 -113.3092 228.9432)" style="fill:#707070;" width="82.993" height="31.397"/>
	
		<rect x="213.915" y="271.259" transform="matrix(0.7071 -0.7071 0.7071 0.7071 -128.1012 264.6506)" style="fill:#707070;" width="82.993" height="31.397"/>
</g>
<g>
</g>
<g>
</g>
<g>
</g>
<g>
</g>
<g>
</g>
<g>
</g>
<g>
</g>
<g>
</g>
<g>
</g>
<g>
</g>
<g>
</g>
<g>
</g>
<g>
</g>
<g>
</g>
<g>
</g>
</svg>
