<?xml version="1.0" encoding="iso-8859-1"?>
<!-- Generator: Adobe Illustrator 18.0.0, SVG Export Plug-In . SVG Version: 6.00 Build 0)  -->
<!DOCTYPE svg PUBLIC "-//W3C//DTD SVG 1.1//EN" "http://www.w3.org/Graphics/SVG/1.1/DTD/svg11.dtd">
<svg version="1.1" id="Capa_1" xmlns="http://www.w3.org/2000/svg" xmlns:xlink="http://www.w3.org/1999/xlink" x="0px" y="0px"
	 viewBox="0 0 56 56" style="enable-background:new 0 0 56 56;" xml:space="preserve">
<g>
	<rect x="14" style="fill:#F77400;" width="38" height="12"/>
	<path style="fill:#E7BB4E;" d="M16,12v28.432c2.88,0.76,4.894,2.453,4.919,4.452c0.002,0.118,0.042,0.346,0.073,0.34
		C20.994,45.236,21,45.245,21,45.257c0,0,0.05,5.625,0,5.671c-0.003,1.661-1.414,3.144-3.556,4.072h2.972H48
		c1.004,0,2-0.814,2-1.817V12H16z"/>
	<path style="fill:#F2ECBF;" d="M49.708,49H34V21h15.708C49.869,21,50,21.131,50,21.292v27.416C50,48.869,49.869,49,49.708,49z"/>
	<rect x="39" y="34" style="fill:#C9BE7D;" width="11" height="2"/>
	<rect x="39" y="38" style="fill:#C9BE7D;" width="11" height="2"/>
	<rect x="39" y="26" style="fill:#C9BE7D;" width="11" height="2"/>
	<rect x="39" y="30" style="fill:#C9BE7D;" width="11" height="2"/>
	<rect x="39" y="42" style="fill:#C9BE7D;" width="11" height="2"/>
	<rect x="18" style="fill:#C15505;" width="2" height="12"/>
	<rect x="22" style="fill:#C15505;" width="2" height="12"/>
	<rect x="26" style="fill:#C15505;" width="2" height="12"/>
	<rect x="30" style="fill:#C15505;" width="2" height="12"/>
	<rect x="34" style="fill:#C15505;" width="2" height="12"/>
	<rect x="38" style="fill:#C15505;" width="2" height="12"/>
	<rect x="42" style="fill:#C15505;" width="2" height="12"/>
	<rect x="46" style="fill:#C15505;" width="2" height="12"/>
	<path style="fill:#C8C9CB;" d="M20.92,44.884c0.035,2.761-3.723,5.051-8.395,5.115S4.036,47.877,4,45.116
		c-0.035-2.761,3.723-5.051,8.395-5.115S20.884,42.123,20.92,44.884z"/>
	<path style="fill:#E0E4E7;" d="M20.992,45.224c-0.034,0.007-0.073,0.005-0.108,0.011c-0.273,2.6-3.889,4.702-8.36,4.764
		c-4.528,0.062-8.236-1.992-8.493-4.632C4.021,45.371,4.01,45.373,4,45.377v5.366c0,0.022-0.001,0.266,0,0.373
		c0.035,2.761,3.852,4.947,8.524,4.882c4.647-0.064,8.47-2.33,8.476-5.07c0.05-0.047,0-5.671,0-5.671
		C21,45.245,20.994,45.236,20.992,45.224z"/>
	<g>
		<path style="fill:#F2ECBF;" d="M20,42.673V20.917h-4v19.515C17.728,40.888,19.14,41.679,20,42.673z"/>
	</g>
	<path style="fill:#EBEBEB;" d="M8.862,49.553l8.617-8.617c-0.656-0.281-1.383-0.505-2.165-0.663l-8.497,8.497
		C7.426,49.087,8.113,49.351,8.862,49.553z"/>
	<rect x="24" y="12" style="fill:#F9D991;" width="4" height="43"/>
</g>
<g>
</g>
<g>
</g>
<g>
</g>
<g>
</g>
<g>
</g>
<g>
</g>
<g>
</g>
<g>
</g>
<g>
</g>
<g>
</g>
<g>
</g>
<g>
</g>
<g>
</g>
<g>
</g>
<g>
</g>
</svg>
