<?xml version="1.0" encoding="iso-8859-1"?>
<!-- Generator: Adobe Illustrator 19.0.0, SVG Export Plug-In . SVG Version: 6.00 Build 0)  -->
<svg version="1.1" id="Layer_1" xmlns="http://www.w3.org/2000/svg" xmlns:xlink="http://www.w3.org/1999/xlink" x="0px" y="0px"
	 viewBox="0 0 512 512" style="enable-background:new 0 0 512 512;" xml:space="preserve">
<path style="fill:#B8002A;" d="M278.065,19.617C276.746,8.43,267.264,0,256.001,0l-20.898,164.708l57.601-20.898L278.065,19.617z"/>
<path style="fill:#DE0436;" d="M256.001,0c-11.264,0-20.745,8.43-22.064,19.617L219.298,143.81l36.703,20.898V0H256.001z"/>
<polygon style="fill:#3C8CD8;" points="256.001,181.833 235.103,242.826 256.001,303.819 334.971,282.921 334.971,202.731 "/>
<g>
	<polygon style="fill:#76BFEF;" points="256.001,181.833 177.03,202.731 177.03,282.921 256.001,303.819 	"/>
	<path style="fill:#76BFEF;" d="M345.399,282.921h-89.398l-20.898,111.354L256.001,512h110.666V304.19
		C366.667,292.443,357.145,282.921,345.399,282.921z"/>
</g>
<path style="fill:#B0D8FB;" d="M256.001,282.921h-89.398c-11.746,0-21.269,9.522-21.269,21.269V512h110.667V282.921z"/>
<path style="fill:#960022;" d="M301.972,143.81h-45.971l-20.898,30.298l20.898,28.623h78.97v-25.922
	C334.971,158.585,320.197,143.81,301.972,143.81z"/>
<path style="fill:#B8002A;" d="M256.001,143.81h-45.971c-18.225,0-32.999,14.774-32.999,32.999v25.922h78.97V143.81z"/>
<path style="fill:#E0E0E0;" d="M256.001,344.294l-20.898,53.167l20.898,53.166c49.856,0,73.843-53.16,73.846-53.166
	C329.843,397.454,305.857,344.294,256.001,344.294z"/>
<path style="fill:#F0F0F0;" d="M256.001,344.294c-49.856,0-73.844,53.16-73.846,53.167c0.003,0.006,23.99,53.166,73.846,53.166
	V344.294z"/>
<circle style="fill:#B4B4B4;" cx="256.001" cy="397.458" r="20.534"/>
<g>
</g>
<g>
</g>
<g>
</g>
<g>
</g>
<g>
</g>
<g>
</g>
<g>
</g>
<g>
</g>
<g>
</g>
<g>
</g>
<g>
</g>
<g>
</g>
<g>
</g>
<g>
</g>
<g>
</g>
</svg>
