<?xml version="1.0" encoding="iso-8859-1"?>
<!-- Generator: Adobe Illustrator 19.0.0, SVG Export Plug-In . SVG Version: 6.00 Build 0)  -->
<svg version="1.1" id="Layer_1" xmlns="http://www.w3.org/2000/svg" xmlns:xlink="http://www.w3.org/1999/xlink" x="0px" y="0px"
	 viewBox="0 0 512 512" style="enable-background:new 0 0 512 512;" xml:space="preserve">
<polygon style="fill:#FFCE47;" points="92.648,106.584 216.25,66.043 203.115,0.004 108.033,18.917 "/>
<rect x="18.59" y="27.726" transform="matrix(-0.9808 0.1951 -0.1951 -0.9808 144.8159 108.5232)" style="fill:#FFE29E;" width="96.947" height="67.334"/>
<polygon style="fill:#E0E0E0;" points="512,355.966 466.454,355.966 445.556,414.649 466.454,473.331 512,473.331 "/>
<polygon style="fill:#FFCE47;" points="426.58,341.526 405.682,414.649 426.58,487.772 466.454,487.772 466.454,341.526 "/>
<polygon style="fill:#FFE29E;" points="426.58,341.526 386.706,341.526 365.808,414.649 386.706,487.772 426.58,487.772 "/>
<polygon style="fill:#B8002A;" points="289.73,317.302 235.375,44.052 164.331,58.183 142.106,330.889 254.6,511.996 
	386.706,511.996 386.706,317.302 "/>
<polygon style="fill:#DE0436;" points="164.331,58.183 0,90.871 83.772,511.996 83.772,511.996 254.6,511.996 "/>
<g>
</g>
<g>
</g>
<g>
</g>
<g>
</g>
<g>
</g>
<g>
</g>
<g>
</g>
<g>
</g>
<g>
</g>
<g>
</g>
<g>
</g>
<g>
</g>
<g>
</g>
<g>
</g>
<g>
</g>
</svg>
