<?xml version="1.0" encoding="iso-8859-1"?>
<!-- Generator: Adobe Illustrator 18.0.0, SVG Export Plug-In . SVG Version: 6.00 Build 0)  -->
<!DOCTYPE svg PUBLIC "-//W3C//DTD SVG 1.1//EN" "http://www.w3.org/Graphics/SVG/1.1/DTD/svg11.dtd">
<svg version="1.1" id="Capa_1" xmlns="http://www.w3.org/2000/svg" xmlns:xlink="http://www.w3.org/1999/xlink" x="0px" y="0px"
	 viewBox="0 0 58 58" style="enable-background:new 0 0 58 58;" xml:space="preserve">
<g>
	<polygon style="fill:#DD352E;" points="13.879,6 20.028,48 37,48 44,6 	"/>
	<polygon style="fill:#E7ECED;" points="13.879,6 44,6 45,0 13,0 	"/>
	<rect x="20.028" y="48" style="fill:#3E465B;" width="16.972" height="10"/>
	<path style="fill:#2E253B;" d="M37,51h-5h-7h-4.972v2H24v2c0,0.552,0.448,1,1,1h7c0.552,0,1-0.448,1-1v-2h4V51z M31,54h-5v-1h5V54z
		"/>
	<g>
		<rect x="16" style="fill:#C7D6D8;" width="2" height="3"/>
		<rect x="20" style="fill:#C7D6D8;" width="2" height="3"/>
		<rect x="24" style="fill:#C7D6D8;" width="2" height="3"/>
		<rect x="28" style="fill:#C7D6D8;" width="2" height="3"/>
		<rect x="32" style="fill:#C7D6D8;" width="2" height="3"/>
		<rect x="36" style="fill:#C7D6D8;" width="2" height="3"/>
		<rect x="40" style="fill:#C7D6D8;" width="2" height="3"/>
	</g>
	<polygon style="fill:#FFFFFF;" points="35,25 31,25 31,21 27,21 27.021,25 23,25 23,29 27,29.021 27,33 31,33 31,29.021 35,29.021 
			"/>
</g>
<g>
</g>
<g>
</g>
<g>
</g>
<g>
</g>
<g>
</g>
<g>
</g>
<g>
</g>
<g>
</g>
<g>
</g>
<g>
</g>
<g>
</g>
<g>
</g>
<g>
</g>
<g>
</g>
<g>
</g>
</svg>
