<?xml version="1.0" encoding="iso-8859-1"?>
<!-- Generator: Adobe Illustrator 18.0.0, SVG Export Plug-In . SVG Version: 6.00 Build 0)  -->
<!DOCTYPE svg PUBLIC "-//W3C//DTD SVG 1.1//EN" "http://www.w3.org/Graphics/SVG/1.1/DTD/svg11.dtd">
<svg version="1.1" id="Capa_1" xmlns="http://www.w3.org/2000/svg" xmlns:xlink="http://www.w3.org/1999/xlink" x="0px" y="0px"
	 viewBox="0 0 59 59" style="enable-background:new 0 0 59 59;" xml:space="preserve">
<g>
	<path style="fill:#E7ECED;" d="M36.5,4.678V1.93C36.5,0.864,35.636,0,34.57,0l-8.14,0c-1.066,0-1.93,0.864-1.93,1.93v2.748
		C24.5,5.408,23.908,6,23.178,6h-4.925C16.18,6,14.5,7.68,14.5,9.753v31.396c0,1.575,1.276,2.851,2.851,2.851h26.298
		c1.575,0,2.851-1.276,2.851-2.851V9.753C46.5,7.68,44.82,6,42.747,6h-4.925C37.092,6,36.5,5.408,36.5,4.678z"/>
	<g>
		<path style="fill:#B02721;" d="M38.12,41H22.88c-0.246,0-0.485-0.084-0.677-0.237l-4.296-3.437
			C17.65,37.12,17.5,36.808,17.5,36.479V10.084C17.5,9.485,17.985,9,18.584,9h23.833c0.599,0,1.084,0.485,1.084,1.084v26.395
			c0,0.329-0.15,0.641-0.407,0.846l-4.296,3.437C38.605,40.916,38.366,41,38.12,41z"/>
		<path style="fill:#E6E6E6;" d="M38.12,42H22.88c-0.47,0-0.932-0.162-1.3-0.455l-4.299-3.439c-0.496-0.397-0.781-0.99-0.781-1.627
			V10.084C16.5,8.935,17.435,8,18.584,8h23.832c1.149,0,2.084,0.935,2.084,2.084v26.395c0,0.637-0.285,1.229-0.781,1.627
			l-4.297,3.438C39.052,41.838,38.59,42,38.12,42z M18.584,10c-0.046,0-0.084,0.038-0.084,0.084v26.395l4.328,3.503L38.12,40
			c0.02,0,0.038-0.007,0.054-0.02l4.295-3.436l0.031-26.46c0-0.046-0.038-0.084-0.084-0.084H18.584z"/>
	</g>
	<g>
		<circle style="fill:#DD352E;" cx="30.5" cy="51" r="1"/>
		<path style="fill:#DD352E;" d="M30.5,53c-0.553,0-1,0.448-1,1c0,1.654-1.346,3-3,3c-2.206,0-4-1.794-4-4
			c0-0.081-0.028-0.153-0.046-0.229C22.221,50.023,20.183,48,17.5,48c-2.683,0-4.721,2.023-4.954,4.772
			C12.528,52.847,12.5,52.919,12.5,53v5c0,0.552,0.447,1,1,1s1-0.448,1-1v-4.714c0-1.904,1.262-3.286,3-3.286s3,1.382,3,3.286
			c0,0.034,0.016,0.063,0.019,0.096C20.718,56.512,23.32,59,26.5,59c2.757,0,5-2.243,5-5C31.5,53.448,31.053,53,30.5,53z"/>
		<path style="fill:#DD352E;" d="M30.5,38c-0.553,0-1,0.448-1,1v8c0,0.552,0.447,1,1,1s1-0.448,1-1v-8
			C31.5,38.448,31.053,38,30.5,38z"/>
	</g>
	<path style="fill:#556080;" d="M33.5,3h-2c0-0.552-0.447-1-1-1s-1,0.448-1,1h-2c-0.553,0-1,0.448-1,1s0.447,1,1,1h2
		c0,0.552,0.447,1,1,1s1-0.448,1-1h2c0.553,0,1-0.448,1-1S34.053,3,33.5,3z"/>
	<circle style="fill:#DD352E;" cx="21.5" cy="13" r="1"/>
	<circle style="fill:#DD352E;" cx="27.5" cy="13" r="1"/>
	<circle style="fill:#DD352E;" cx="33.5" cy="13" r="1"/>
	<circle style="fill:#DD352E;" cx="39.5" cy="13" r="1"/>
	<circle style="fill:#DD352E;" cx="24.5" cy="16" r="1"/>
	<circle style="fill:#DD352E;" cx="30.5" cy="16" r="1"/>
	<circle style="fill:#DD352E;" cx="36.5" cy="16" r="1"/>
	<circle style="fill:#DD352E;" cx="21.5" cy="19" r="1"/>
	<circle style="fill:#DD352E;" cx="27.5" cy="19" r="1"/>
	<circle style="fill:#DD352E;" cx="21.5" cy="25" r="1"/>
	<circle style="fill:#DD352E;" cx="27.5" cy="25" r="1"/>
	<circle style="fill:#DD352E;" cx="24.5" cy="22" r="1"/>
	<circle style="fill:#DD352E;" cx="30.5" cy="22" r="1"/>
	<circle style="fill:#DD352E;" cx="33.5" cy="19" r="1"/>
	<circle style="fill:#DD352E;" cx="39.5" cy="19" r="1"/>
	<circle style="fill:#DD352E;" cx="33.5" cy="25" r="1"/>
	<circle style="fill:#DD352E;" cx="39.5" cy="25" r="1"/>
	<circle style="fill:#DD352E;" cx="36.5" cy="22" r="1"/>
	<circle style="fill:#DD352E;" cx="24.5" cy="28" r="1"/>
	<circle style="fill:#DD352E;" cx="30.5" cy="28" r="1"/>
	<circle style="fill:#DD352E;" cx="36.5" cy="28" r="1"/>
	<circle style="fill:#DD352E;" cx="21.5" cy="31" r="1"/>
	<circle style="fill:#DD352E;" cx="27.5" cy="31" r="1"/>
	<circle style="fill:#DD352E;" cx="21.5" cy="37" r="1"/>
	<circle style="fill:#DD352E;" cx="27.5" cy="37" r="1"/>
	<circle style="fill:#DD352E;" cx="24.5" cy="34" r="1"/>
	<circle style="fill:#DD352E;" cx="30.5" cy="34" r="1"/>
	<circle style="fill:#DD352E;" cx="33.5" cy="31" r="1"/>
	<circle style="fill:#DD352E;" cx="39.5" cy="31" r="1"/>
	<circle style="fill:#DD352E;" cx="33.5" cy="37" r="1"/>
	<circle style="fill:#DD352E;" cx="39.5" cy="37" r="1"/>
	<circle style="fill:#DD352E;" cx="36.5" cy="34" r="1"/>
	<path style="fill:#C7CAC7;" d="M31.914,55h-2.828L26.5,52.414V46h8v6.414L31.914,55z M29.914,53h1.172l1.414-1.414V48h-4v3.586
		L29.914,53z"/>
	<path style="fill:#C7CAC7;" d="M35.5,48h-10c-0.553,0-1-0.448-1-1s0.447-1,1-1h10c0.553,0,1,0.448,1,1S36.053,48,35.5,48z"/>
</g>
<g>
</g>
<g>
</g>
<g>
</g>
<g>
</g>
<g>
</g>
<g>
</g>
<g>
</g>
<g>
</g>
<g>
</g>
<g>
</g>
<g>
</g>
<g>
</g>
<g>
</g>
<g>
</g>
<g>
</g>
</svg>
