<?xml version="1.0" encoding="iso-8859-1"?>
<!-- Generator: Adobe Illustrator 19.0.0, SVG Export Plug-In . SVG Version: 6.00 Build 0)  -->
<svg version="1.1" id="Capa_1" xmlns="http://www.w3.org/2000/svg" xmlns:xlink="http://www.w3.org/1999/xlink" x="0px" y="0px"
	 viewBox="0 0 343.515 343.515" style="enable-background:new 0 0 343.515 343.515;" xml:space="preserve">
<g>
	<g id="Guides_For_Artboard_38_">
	</g>
	<g id="Artwork_37_">
	</g>
	<g id="Layer_2_37_">
		<g>
			<rect x="50.452" style="fill:#5A9794;" width="239.5" height="58.948"/>
			<path style="fill:#F7F1E6;" d="M236.871,57.947h-25.988h-25.99h-25.989h-25.985h-25.991H80.94H54.951l-0.111,1v261.794
				c0,12.578,10.197,22.774,22.775,22.774h187.889c12.578,0,22.775-10.196,22.775-22.774V57.947h-25.421H236.871z M261.689,226.498
				c0,12.971-10.516,23.486-23.486,23.486H104.332c-12.971,0-23.486-10.515-23.486-23.486v-70.454
				c0-12.971,10.515-23.486,23.486-23.486h133.871c12.971,0,23.486,10.515,23.486,23.486V226.498z"/>
			<path style="fill:#E74424;" d="M238.203,132.558H104.332c-12.971,0-23.486,10.515-23.486,23.486v70.454
				c0,12.971,10.515,23.486,23.486,23.486h133.871c12.971,0,23.486-10.515,23.486-23.486v-70.454
				C261.689,143.073,251.173,132.558,238.203,132.558z M216.465,194.56c0,5.961-4.832,10.792-10.794,10.792h-17.133v17.134
				c0,5.961-4.831,10.793-10.792,10.793h-7.219c-5.958,0-10.791-4.832-10.791-10.793v-17.134h-17.132
				c-5.958,0-10.793-4.831-10.793-10.792v-7.216c0-5.96,4.835-10.792,10.793-10.792h17.133v-17.133
				c0-5.961,4.833-10.792,10.791-10.792h7.219c5.961,0,10.792,4.831,10.792,10.792v17.133h17.133
				c5.962,0,10.794,4.832,10.794,10.792L216.465,194.56L216.465,194.56z"/>
			<rect x="54.95" style="fill:#62A5A2;" width="25.989" height="58.948"/>
			<rect x="106.928" style="fill:#62A5A2;" width="25.991" height="58.948"/>
			<rect x="158.904" style="fill:#62A5A2;" width="25.988" height="58.948"/>
			<rect x="210.882" style="fill:#62A5A2;" width="25.988" height="58.948"/>
			<polygon style="fill:#62A5A2;" points="262.858,0 262.858,58.947 288.279,58.947 288.846,58.947 288.846,0 			"/>
			<path style="fill:#5A9794;" d="M54.95,0h-4.023C39.793,0,30.594,7,28.964,16.128V42.82c1.631,9.128,10.829,16.127,21.963,16.127
				h3.913h0.111L54.95,0L54.95,0z"/>
			<rect x="80.94" style="fill:#5A9794;" width="25.988" height="58.948"/>
			<rect x="132.919" style="fill:#5A9794;" width="25.985" height="58.948"/>
			<rect x="184.892" style="fill:#5A9794;" width="25.99" height="58.948"/>
			<rect x="236.871" style="fill:#5A9794;" width="25.987" height="58.948"/>
			<path style="fill:#5A9794;" d="M292.305,0h-3.459v58.948h3.459c12.287,0,22.246-8.514,22.246-19.015V19.016
				C314.551,8.513,304.592,0,292.305,0z"/>
			<path style="fill:#F7F1E6;" d="M205.672,176.551h-17.133v-17.133c0-5.961-4.831-10.792-10.792-10.792h-7.219
				c-5.958,0-10.791,4.831-10.791,10.792v17.133h-17.133c-5.958,0-10.793,4.832-10.793,10.792v7.216
				c0,5.961,4.835,10.792,10.793,10.792h17.133v17.134c0,5.961,4.833,10.793,10.791,10.793h7.219
				c5.961,0,10.792-4.832,10.792-10.793v-17.134h17.133c5.962,0,10.794-4.831,10.794-10.792v-7.216
				C216.465,181.384,211.633,176.551,205.672,176.551z"/>
		</g>
	</g>
</g>
<g>
</g>
<g>
</g>
<g>
</g>
<g>
</g>
<g>
</g>
<g>
</g>
<g>
</g>
<g>
</g>
<g>
</g>
<g>
</g>
<g>
</g>
<g>
</g>
<g>
</g>
<g>
</g>
<g>
</g>
</svg>
